<?xml version="1.0" encoding="UTF-8"?>
<svg version="1.1" viewBox="70 0 560 560" xmlns="http://www.w3.org/2000/svg">
 <g>
  <path d="m629.98 496.66-149.12-149.12c23.465-35.441 37.117-77.859 37.117-123.52 0-123.73-100.28-224-223.98-224-123.71 0.0039063-223.98 100.28-223.98 224.01 0 123.69 100.28 224 223.98 224 45.645 0 88.113-13.703 123.52-37.152l149.12 149.12zm-496.5-272.61c0-88.66 71.875-160.5 160.52-160.5 88.66 0 160.53 71.844 160.53 160.5 0 88.66-71.875 160.54-160.53 160.54-88.641 0-160.52-71.875-160.52-160.54z"/>
 </g>
</svg>
